<svg xmlns="http://www.w3.org/2000/svg" width="511.517" height="512" viewBox="0 0 511.517 512"><path d="M83.211,512h432.1a39.755,39.755,0,0,0,39.71-39.71V39.71A39.753,39.753,0,0,0,515.309,0H83.211A39.755,39.755,0,0,0,43.5,39.71V472.29A39.755,39.755,0,0,0,83.211,512c4.386,0,4.386-15.884,0-15.884A23.853,23.853,0,0,1,59.385,472.29V39.71A23.853,23.853,0,0,1,83.211,15.884h432.1A23.854,23.854,0,0,1,539.135,39.71V472.29a23.854,23.854,0,0,1-23.826,23.826H114.335c-4.982-.053-31.123,0-31.123,0Z" transform="translate(-43.501)" fill="#0045ce"/><g transform="translate(52.947 52.947)"><path d="M83.211,506.105h326.2a39.755,39.755,0,0,0,39.71-39.71V139.71A39.753,39.753,0,0,0,409.414,100H83.211A39.755,39.755,0,0,0,43.5,139.71V466.4a39.755,39.755,0,0,0,39.71,39.71Z" transform="translate(-43.501 -100)" fill="#0045ce"/></g><g transform="translate(124.087 122.032)"><path d="M111.474-142.445c5.011-31.781,17.259-56.5,36.746-73.713,18.93-17.214,43.984-25.6,75.162-25.6s46.767,8.387,46.767,25.6a52.608,52.608,0,0,1-10.022,31.339,87.446,87.446,0,0,1-27.838,24.277C209.462-148.625,183.3-139.8,152.674-134.5,145.436-83.74,134.3-47.545,119.825-25.917c33.962,9.269,57.346,15.007,69.037,17.656a203.651,203.651,0,0,0,37.3,3.531c13.362,0,22.27-4.414,27.281-12.8s8.351-12.8,10.578-12.8q6.681,0,6.681,6.621c0,13.683-6.681,25.6-19.486,35.312a69.218,69.218,0,0,1-42.313,14.566,141.277,141.277,0,0,1-42.313-6.18c-12.805-3.973-20.6-6.621-23.94-7.945s-10.022-3.531-20.043-7.5Q106.741-1.419,100.9-3.405C86.977,8.512,68.047,14.251,44.106,14.251c-9.465,0-18.373-2.648-25.611-8.387S7.361-6.5,7.361-14c0-16.773,12.249-25.16,36.189-25.16,10.578,0,25.054,1.766,43.427,5.738,7.238-17.656,14.476-49.878,22.27-96.225-3.9.441-9.465.441-16.146.441-7.238,0-10.578-.883-10.578-2.648C82.523-137.59,91.987-141.121,111.474-142.445Zm42.87-4.855c23.94-3.973,43.427-11.035,59.016-20.746C228.392-178.2,236.187-191,236.187-206.889s-6.681-23.835-20.6-23.835C185.522-230.725,164.922-202.917,154.344-147.3ZM74.171-12.675C52.458-20.178,39.1-23.71,34.642-23.71c-5.011,0-7.795,2.207-7.795,6.18s2.227,7.5,7.238,10.594C38.539-3.847,44.663-2.523,51.9-2.523S66.933-6.054,74.171-12.675Z" transform="translate(-7.361 241.76)" fill="#fff"/></g></svg>