<svg xmlns="http://www.w3.org/2000/svg" xmlns:xlink="http://www.w3.org/1999/xlink" width="512" height="512" viewBox="0 0 512 512">
  <defs>
    <clipPath id="clip-android-chrome-512x512">
      <rect width="512" height="512"/>
    </clipPath>
  </defs>
  <g id="android-chrome-512x512" clip-path="url(#clip-android-chrome-512x512)">
    <g id="Component_39_1" data-name="Component 39 – 1">
      <rect id="Rectangle_3" data-name="Rectangle 3" width="512" height="512" fill="#07c"/>
      <g id="Group_19" data-name="Group 19" transform="translate(98.485 95.697)">
        <path id="Path_20" data-name="Path 20" d="M115.058-139.027c5.183-32.874,17.853-58.444,38.011-76.251,19.581-17.807,45.5-26.482,77.749-26.482s48.377,8.675,48.377,26.482a54.419,54.419,0,0,1-10.367,32.418,90.456,90.456,0,0,1-28.8,25.113c-23.613,12.328-50.681,21.46-82.356,26.939C150.189-78.3,138.67-40.86,123.7-18.487,158.827-8.9,183.016-2.963,195.11-.223A210.659,210.659,0,0,0,233.7,3.43c13.822,0,23.037-4.566,28.22-13.241s8.639-13.241,10.943-13.241q6.911,0,6.911,6.849c0,14.154-6.911,26.482-20.157,36.527a71.6,71.6,0,0,1-43.77,15.067A146.14,146.14,0,0,1,172.074,29c-13.246-4.109-21.309-6.849-24.765-8.219s-10.367-3.653-20.733-7.762Q110.162,6.854,104.115,4.8c-14.4,12.328-33.979,18.264-58.744,18.264-9.791,0-19.005-2.74-26.492-8.675S7.361,1.6,7.361-6.159c0-17.35,12.67-26.026,37.435-26.026,10.942,0,25.916,1.826,44.922,5.936,7.487-18.264,14.974-51.595,23.037-99.537-4.031.457-9.791.457-16.7.457-7.487,0-10.942-.913-10.942-2.74C85.11-134,94.9-137.657,115.058-139.027Zm44.346-5.022c24.765-4.109,44.922-11.415,61.047-21.46,15.55-10.5,23.613-23.743,23.613-40.18s-6.911-24.656-21.309-24.656C191.655-230.345,170.346-201.58,159.4-144.049ZM76.471-4.789C54.01-12.551,40.188-16.2,35.581-16.2c-5.183,0-8.063,2.283-8.063,6.392S29.822-2.049,35,1.147c4.607,3.2,10.942,4.566,18.429,4.566S68.984,2.06,76.471-4.789Z" transform="translate(9.688 255.523)" fill="#fff"/>
      </g>
      <g id="Group_23" data-name="Group 23">
        <g id="Group_20" data-name="Group 20" transform="translate(-568)">
          <g id="Group_20-2" data-name="Group 20" transform="translate(578)">
            <rect id="Rectangle_3-2" data-name="Rectangle 3" width="512" height="512" transform="translate(-10)" fill="#07c"/>
          </g>
        </g>
        <rect id="Rectangle_4" data-name="Rectangle 4" width="442.928" height="495.553" transform="translate(98.201 409.399) rotate(-45)" fill="#004576"/>
        <g id="Group_22" data-name="Group 22">
          <circle id="Ellipse_2" data-name="Ellipse 2" cx="221.5" cy="221.5" r="221.5" transform="translate(44 41)" fill="#7c6400"/>
          <circle id="Ellipse_1" data-name="Ellipse 1" cx="221.5" cy="221.5" r="221.5" transform="translate(30 28)" fill="#ebbc00"/>
          <path id="Path_21" data-name="Path 21" d="M442.928,1.035c0,122.311-99.153,221.464-221.464,221.464S0,123.346,0,1.035C.643-1.188,443.113.831,442.928,1.035Z" transform="translate(97.165 408.88) rotate(-45)" fill="#d4aa00"/>
        </g>
        <g id="Group_19-2" data-name="Group 19" transform="translate(115.534 109.46)">
          <path id="Path_20-2" data-name="Path 20" d="M115.058-139.027c5.183-32.874,17.853-58.444,38.011-76.251,19.581-17.807,45.5-26.482,77.749-26.482s48.377,8.675,48.377,26.482a54.419,54.419,0,0,1-10.367,32.418,90.456,90.456,0,0,1-28.8,25.113c-23.613,12.328-50.681,21.46-82.356,26.939C150.189-78.3,138.67-40.86,123.7-18.487,158.827-8.9,183.016-2.963,195.11-.223A210.659,210.659,0,0,0,233.7,3.43c13.822,0,23.037-4.566,28.22-13.241s8.639-13.241,10.943-13.241q6.911,0,6.911,6.849c0,14.154-6.911,26.482-20.157,36.527a71.6,71.6,0,0,1-43.77,15.067A146.14,146.14,0,0,1,172.074,29c-13.246-4.109-21.309-6.849-24.765-8.219s-10.367-3.653-20.733-7.762Q110.162,6.854,104.115,4.8c-14.4,12.328-33.979,18.264-58.744,18.264-9.791,0-19.005-2.74-26.492-8.675S7.361,1.6,7.361-6.159c0-17.35,12.67-26.026,37.435-26.026,10.942,0,25.916,1.826,44.922,5.936,7.487-18.264,14.974-51.595,23.037-99.537-4.031.457-9.791.457-16.7.457-7.487,0-10.942-.913-10.942-2.74C85.11-134,94.9-137.657,115.058-139.027Zm44.346-5.022c24.765-4.109,44.922-11.415,61.047-21.46,15.55-10.5,23.613-23.743,23.613-40.18s-6.911-24.656-21.309-24.656C191.655-230.345,170.346-201.58,159.4-144.049ZM76.471-4.789C54.01-12.551,40.188-16.2,35.581-16.2c-5.183,0-8.063,2.283-8.063,6.392S29.822-2.049,35,1.147c4.607,3.2,10.942,4.566,18.429,4.566S68.984,2.06,76.471-4.789Z" transform="translate(-7.361 241.76)" fill="#fff"/>
        </g>
      </g>
    </g>
  </g>
</svg>
